<mxfile host="app.diagrams.net" modified="2024-07-08T19:48:35.367Z" agent="Mozilla/5.0 (Windows NT 10.0; Win64; x64) AppleWebKit/537.36 (KHTML, like Gecko) Chrome/126.0.0.0 Safari/537.36 Edg/126.0.0.0" version="24.3.1" etag="s8ZtgzI4inPA-tbqYfHf" type="github">
  <diagram name="Seite-1" id="TULq9JBRfpRznfRxP_a6">
    <mxGraphModel>
      <root>
        <mxCell id="0" />
        <mxCell id="1" parent="0" />
      </root>
    </mxGraphModel>
  </diagram>
</mxfile>
